HIERARCHY
ROOT Hips
{
 OFFSET 0.000000 0.000000 0.000000
 CHANNELS 6 Xposition Yposition Zposition Yrotation Xrotation Zrotation
 JOINT Chest
 {
  OFFSET 0.000000 10.354800 0.006500
  CHANNELS 3 Yrotation Xrotation Zrotation
  JOINT Chest2
  {
   OFFSET 0.000000 10.435800 -0.013200
   CHANNELS 3 Yrotation Xrotation Zrotation
   JOINT Chest3
   {
    OFFSET 0.000000 10.393700 0.000000
    CHANNELS 3 Yrotation Xrotation Zrotation
    JOINT Chest4
    {
     OFFSET 0.000000 10.383100 0.000000
     CHANNELS 3 Yrotation Xrotation Zrotation
     JOINT Neck
     {
      OFFSET 0.000000 15.694000 0.000000
      CHANNELS 3 Yrotation Xrotation Zrotation
      JOINT Head
      {
       OFFSET 0.000000 9.711000 -0.028000
       CHANNELS 3 Yrotation Xrotation Zrotation
       End Site
       {
        OFFSET 0.000000 18.578700 -0.014800
       }
      }
     }
     JOINT RightCollar
     {
      OFFSET -3.157200 10.367500 0.000000
      CHANNELS 3 Yrotation Xrotation Zrotation
      JOINT RightShoulder
      {
       OFFSET -14.482500 0.000000 0.000000
       CHANNELS 3 Yrotation Xrotation Zrotation
       JOINT RightElbow
       {
        OFFSET 0.000000 -31.707800 0.000000
        CHANNELS 3 Yrotation Xrotation Zrotation
        JOINT RightWrist
        {
         OFFSET 0.000000 -25.659300 0.000000
         CHANNELS 3 Yrotation Xrotation Zrotation
         End Site
         {
          OFFSET 0.000000 -18.994300 0.000000
         }
        }
       }
      }
     }
     JOINT LeftCollar
     {
      OFFSET 3.157200 10.367500 0.000000
      CHANNELS 3 Yrotation Xrotation Zrotation
      JOINT LeftShoulder
      {
       OFFSET 14.482500 0.000000 0.000000
       CHANNELS 3 Yrotation Xrotation Zrotation
       JOINT LeftElbow
       {
        OFFSET 0.000000 -31.707800 0.000000
        CHANNELS 3 Yrotation Xrotation Zrotation
        JOINT LeftWrist
        {
         OFFSET 0.000000 -25.659300 0.000000
         CHANNELS 3 Yrotation Xrotation Zrotation
         End Site
         {
          OFFSET 0.000000 -18.994300 0.000000
         }
        }
       }
      }
     }
    }
   }
  }
 }
 JOINT RightHip
 {
  OFFSET -8.365600 -0.032100 -0.003200
  CHANNELS 3 Yrotation Xrotation Zrotation
  JOINT RightKnee
  {
   OFFSET 0.000000 -43.980000 0.003100
   CHANNELS 3 Yrotation Xrotation Zrotation
   JOINT RightAnkle
   {
    OFFSET 0.000000 -42.882800 0.005200
    CHANNELS 3 Yrotation Xrotation Zrotation
    JOINT RightToe
    {
     OFFSET 0.000000 -4.915500 10.826300
     CHANNELS 3 Yrotation Xrotation Zrotation
     End Site
     {
      OFFSET 0.000000 -1.517500 6.175900
     }
    }
   }
  }
 }
 JOINT LeftHip
 {
  OFFSET 8.365600 -0.032100 -0.003200
  CHANNELS 3 Yrotation Xrotation Zrotation
  JOINT LeftKnee
  {
   OFFSET 0.000000 -43.980000 0.003100
   CHANNELS 3 Yrotation Xrotation Zrotation
   JOINT LeftAnkle
   {
    OFFSET 0.000000 -42.882800 0.005200
    CHANNELS 3 Yrotation Xrotation Zrotation
    JOINT LeftToe
    {
     OFFSET 0.000000 -4.915500 10.826300
     CHANNELS 3 Yrotation Xrotation Zrotation
     End Site
     {
      OFFSET 0.000000 -1.517500 6.175900
     }
    }
   }
  }
 }
}
MOTION
Frames: 15
Frame Time: 0.008333
0.000000 91.618600 0.000000 0.000000 -5.767877 0.000000 0.000000 11.653817 0.000000 0.000000 -5.885947 0.000000 0.000000 -0.000000 0.000000 0.000000 -0.000000 0.000000 0.000000 12.528835 0.000000 0.000000 0.711642 0.000000 0.000000 -0.000000 0.000000 0.000000 0.000000 -90.000000 0.000000 -2.309062 0.000000 0.000000 2.309062 0.000000 0.000000 -0.000000 0.000000 0.000000 -0.000000 90.000000 0.000000 -2.309062 0.000000 0.000000 2.309062 0.000000 0.000000 8.520406 0.000000 0.000000 1.905762 0.000000 -0.000000 -4.658285 0.000000 0.000000 -0.000000 0.000000 0.000000 8.520406 0.000000 0.000000 1.905762 0.000000 -0.000000 -4.658285 0.000000 0.000000 -0.000000 0.000000
-0.630612 127.352825 42.238079 169.708110 -38.651222 -0.758611 4.832628 16.854823 3.701217 0.469170 1.840806 0.335214 0.785632 3.056520 0.565464 4.167738 14.726218 3.192502 -1.951535 23.369690 -3.330799 -1.349200 -0.541849 -3.156440 5.231199 9.004318 -5.656829 -12.309873 -25.325881 -18.076244 -128.295625 -52.664530 144.592620 -25.317848 -9.541505 -20.938171 12.141628 14.063551 6.739162 30.186404 5.035923 -5.004812 135.402315 -42.245485 -173.901658 22.534405 -4.981314 -9.236451 5.744568 -43.794301 1.209121 -87.557712 78.837222 -81.415700 3.377318 7.225801 -18.849934 -0.060082 0.062414 -0.027305 -17.189666 -43.446838 1.819854 102.911695 87.317549 93.090633 -3.933677 -24.206858 -1.128364 -0.035518 0.005597 -0.016127
-0.636240 127.357298 42.240962 169.774463 -38.731870 -0.761487 4.789654 16.856702 3.701312 0.463161 1.842701 0.335556 0.775574 3.059669 0.565927 4.118283 14.740759 3.189826 -1.705699 23.406352 -3.349738 -1.079098 -0.499365 -3.233299 5.284590 9.120045 -5.620603 -12.791550 -25.200221 -17.719923 -129.322785 -52.498689 145.964648 -24.704605 -8.642069 -21.272810 12.014064 13.971382 6.685826 30.430496 4.782517 -4.779680 136.317336 -42.254838 -174.206481 22.158354 -4.612895 -9.626667 5.816941 -43.724125 1.157179 -87.544780 78.823397 -81.421391 3.343613 7.252786 -18.794242 -0.060525 0.045893 -0.027499 -17.189581 -43.377112 1.759583 102.358817 87.289368 92.519874 -3.889993 -24.220718 -1.153714 -0.036097 0.004736 -0.016390
-0.634785 127.360407 42.248078 169.857287 -38.803454 -0.817529 4.736822 16.846754 3.739141 0.456820 1.843671 0.335997 0.768380 3.101247 0.554769 4.067148 14.711168 3.197725 -1.459695 23.444756 -3.367900 -0.809023 -0.453849 -3.309444 5.340777 9.231863 -5.581135 -13.282792 -25.063812 -17.404491 -130.400603 -52.302338 147.341128 -24.132640 -7.762233 -21.495916 11.895048 13.875961 6.645859 30.807522 4.521031 -4.522576 137.350828 -42.157217 -174.588957 21.846263 -4.359796 -10.045590 5.912210 -43.670888 1.148443 -87.671949 78.749666 -81.486646 3.299838 7.264318 -18.812313 0.009792 0.013542 0.004447 -17.248085 -43.302564 1.811928 101.743098 87.196857 91.846149 -3.991682 -24.227607 -1.130125 -0.036731 0.005406 -0.016678
-0.639072 127.360247 42.258546 169.899518 -38.848132 -0.820954 4.696559 16.813675 3.741609 0.450303 1.843599 0.336511 0.769601 3.142171 0.545643 4.007137 14.676741 3.205292 -1.226537 23.482261 -3.384134 -0.553292 -0.408580 -3.380794 5.397131 9.335982 -5.540893 -13.752489 -24.908414 -17.142136 -131.570133 -52.090372 148.724029 -23.603515 -6.907384 -21.573745 11.783966 13.766518 6.611678 31.309027 4.251480 -4.231196 138.491416 -41.955320 -175.025718 21.604892 -4.223227 -10.476352 5.971886 -43.635098 1.124702 -87.618789 78.735876 -81.479440 3.296088 7.276492 -18.728212 0.002863 0.020495 0.001300 -17.238236 -43.267345 1.817286 101.377806 87.153313 91.442441 -4.038497 -24.235378 -1.105913 -0.037481 0.001283 -0.017018
-0.641802 127.364008 42.264058 169.972146 -38.925385 -0.848385 4.634008 16.853548 3.739412 0.447020 1.843282 0.336803 0.742331 3.040056 0.572857 3.997297 14.782890 3.183979 -1.041360 23.474088 -3.377768 -0.326118 -0.365652 -3.445380 5.422660 9.388827 -5.489114 -14.203949 -24.740411 -16.924759 -132.841614 -51.874363 150.112531 -23.109984 -6.065850 -21.472275 11.659535 13.586644 6.590146 31.923492 3.976208 -3.903116 139.744485 -41.647473 -175.520843 21.452155 -4.203275 -10.875331 5.990692 -43.563608 1.119852 -87.561677 78.715199 -81.469643 3.234300 7.302330 -18.641817 -0.008316 0.009855 -0.003776 -17.206322 -43.202606 1.823478 101.398655 87.170542 91.432160 -4.112469 -24.242554 -1.051441 -0.009239 -0.009317 -0.004194
-0.644390 127.367588 42.269012 170.026331 -38.997468 -0.866049 4.584877 16.888505 3.738707 0.432149 1.783536 0.354165 0.728429 3.035798 0.574198 3.934092 14.781708 3.187261 -0.863250 23.528530 -3.404441 -0.141460 -0.323896 -3.501867 5.482223 9.506042 -5.467814 -14.672136 -24.577219 -16.736974 -134.158437 -51.647284 151.479668 -22.639986 -5.213143 -21.162658 11.600281 13.456886 6.557916 32.662850 3.687885 -3.550513 141.115584 -41.234297 -176.086284 21.417772 -4.294179 -11.183125 6.000138 -43.494577 1.114382 -87.560741 78.690540 -81.477228 3.135393 7.299400 -18.627761 -0.004534 0.007884 -0.002059 -17.196849 -43.138195 1.822891 101.240623 87.167730 91.240315 -4.160656 -24.250991 -1.017283 -0.008642 -0.013751 -0.003923
-0.646622 127.370029 42.274290 170.074392 -39.054449 -0.883934 4.519388 16.816700 3.762911 0.429550 1.817652 0.345456 0.721344 3.049574 0.570340 3.867616 14.752168 3.196492 -0.734303 23.585944 -3.433263 -0.010009 -0.280569 -3.548689 5.542365 9.629318 -5.480788 -15.220622 -24.429547 -16.543882 -135.424615 -51.378456 152.782065 -22.199628 -4.327200 -20.637339 11.567557 13.320205 6.529187 33.546535 3.369245 -3.191250 142.573262 -40.732033 -176.712718 21.504208 -4.495364 -11.337276 5.982452 -43.437150 1.108837 -87.526898 78.688698 -81.470636 3.140697 7.295969 -18.644133 -0.002873 0.004569 -0.001305 -17.205286 -43.086324 1.836063 101.168099 87.192499 91.137739 -4.191741 -24.256898 -1.000893 -0.003487 -0.016445 -0.001583
-0.647126 127.373380 42.277382 170.130386 -39.113370 -0.916389 4.462715 16.787828 3.794680 0.423796 1.830535 0.339088 0.710591 3.040987 0.571249 3.821608 14.738227 3.201378 -0.671607 23.623898 -3.452367 0.065077 -0.229625 -3.587757 5.581736 9.733978 -5.489522 -15.864105 -24.312598 -16.379287 -136.580204 -51.048833 153.999905 -21.824632 -3.426709 -19.910713 11.544849 13.156031 6.511251 34.563209 3.005475 -2.837709 144.051642 -40.154114 -177.366689 21.671586 -4.797234 -11.262869 5.982616 -43.384385 1.125832 -87.539693 78.658671 -81.521431 3.157078 7.304474 -18.586929 0.001858 -0.001311 0.000843 -17.224953 -43.021878 1.852769 100.826958 87.217699 90.766759 -4.227978 -24.237055 -0.990903 0.000893 -0.027252 0.000405
-0.655381 127.375254 42.279308 170.179935 -39.154220 -0.904260 4.403683 16.765227 3.777138 0.417524 1.823665 0.339965 0.704078 3.051336 0.566116 3.776871 14.696772 3.215019 -0.665845 23.667167 -3.473848 0.075998 -0.176419 -3.613101 5.591050 9.832186 -5.487808 -16.580724 -24.224181 -16.267895 -137.623917 -50.659616 155.138457 -21.529394 -2.568147 -19.025848 11.541058 12.987317 6.498294 35.692392 2.586376 -2.488106 145.498344 -39.506009 -178.002694 21.887318 -5.179748 -10.891072 6.063682 -43.353637 1.098991 -87.629232 78.581704 -81.672459 3.137614 7.308095 -18.472431 -0.004891 0.000515 -0.002221 -17.190922 -42.992959 1.809629 100.669375 87.225943 90.580006 -4.286078 -24.233440 -0.956917 0.002853 -0.016737 0.001295
-0.660647 127.376139 42.281596 170.225539 -39.180211 -0.909695 4.356748 16.730155 3.777379 0.411681 1.815394 0.341156 0.704586 3.101956 0.549600 3.733452 14.605621 3.242745 -0.714891 23.719223 -3.496597 0.024811 -0.116781 -3.624174 5.520879 9.860926 -5.478483 -17.284075 -24.102404 -16.231478 -138.602985 -50.216274 156.219045 -21.299673 -1.789808 -18.047968 11.549143 12.814204 6.487474 36.916069 2.102059 -2.141077 146.924047 -38.804192 -178.600820 22.137496 -5.643597 -10.188971 6.085702 -43.330004 1.076284 -87.687037 78.539049 -81.757000 3.166481 7.308694 -18.459473 -0.000874 -0.002186 -0.000397 -17.162465 -42.966148 1.796569 100.223979 87.233413 90.086681 -4.361620 -24.191206 -0.922533 -0.007727 -0.013095 -0.003508
-0.663320 127.376901 42.283118 170.268673 -39.199297 -0.930735 4.320705 16.688685 3.791622 0.406341 1.805776 0.342545 0.684498 3.023043 0.571418 3.707597 14.638035 3.242049 -0.813263 23.783351 -3.516142 -0.077528 -0.038939 -3.624011 5.470948 9.913826 -5.508056 -18.090135 -23.995914 -16.166020 -139.568619 -49.727485 157.273542 -21.107383 -1.114235 -17.052939 11.567783 12.644252 6.483651 38.185802 1.542003 -1.817468 148.404191 -38.080096 -179.188278 22.394018 -6.189075 -9.149208 6.084566 -43.311437 1.072219 -87.728221 78.506246 -81.813113 3.160542 7.307540 -18.434272 0.002444 -0.004820 0.001109 -17.165541 -42.948809 1.787354 100.044083 87.248491 89.889813 -4.374332 -24.146975 -0.940116 -0.010181 -0.008849 -0.004622
-0.662102 127.376793 42.285134 170.289427 -39.205410 -0.962909 4.312650 16.646724 3.825237 0.405393 1.780367 0.347222 0.673091 3.029757 0.571043 3.681496 14.576708 3.260460 -0.952671 23.861762 -3.528534 -0.226065 0.055821 -3.606811 5.398006 9.958900 -5.547984 -18.935358 -23.886049 -16.105760 -140.526986 -49.199818 158.317502 -20.924540 -0.566371 -16.098362 11.596659 12.479198 6.490909 39.446627 0.895313 -1.535483 150.006464 -37.365769 -179.790904 22.626718 -6.816089 -7.765116 6.102028 -43.305414 1.077531 -87.761559 78.488117 -81.824652 3.215750 7.309010 -18.478277 0.017987 -0.011828 0.008165 -17.141890 -42.938660 1.794861 100.032275 87.270652 89.896258 -4.373791 -24.107567 -0.964115 -0.003064 -0.004914 -0.001391
-0.664543 127.377265 42.284406 170.317844 -39.212280 -0.980231 4.302883 16.594091 3.840576 0.400501 1.768565 0.348347 0.659939 3.054979 0.568749 3.660060 14.491066 3.277705 -1.124228 23.954298 -3.531420 -0.411865 0.167609 -3.572112 5.308755 10.005347 -5.597095 -19.856316 -23.786948 -16.038122 -141.465031 -48.635913 159.349323 -20.757206 -0.162740 -15.195775 11.632972 12.311334 6.512188 40.659225 0.153060 -1.290194 151.749198 -36.692595 179.608794 22.815754 -7.552793 -6.041968 6.156552 -43.294476 1.043407 -87.832621 78.456327 -81.883830 3.243309 7.301776 -18.451090 0.017074 -0.010231 0.007751 -17.098091 -42.933941 1.779722 99.994479 87.314099 89.857225 -4.365414 -24.058995 -0.965921 -0.001031 -0.003569 -0.000468
-0.672544 127.377790 42.281357 170.439516 -39.214565 -1.025513 4.221191 16.530361 3.824745 0.391995 1.770595 0.345833 0.655934 2.967755 0.581132 3.631998 14.513655 3.284731 -1.320104 24.057262 -3.522929 -0.626864 0.292249 -3.519710 5.202125 10.052640 -5.656020 -20.872467 -23.702707 -15.961705 -142.378684 -48.037790 160.359922 -20.620089 0.089369 -14.330421 11.667536 12.135767 6.549192 41.780804 -0.687499 -1.070099 153.620460 -36.093358 179.074401 22.915357 -8.394153 -4.059961 6.125833 -43.283391 0.991016 -87.978489 78.423777 -82.073606 3.229478 7.274559 -18.371368 -0.008221 -0.002795 -0.003732 -17.120798 -42.944725 1.730510 99.844335 87.342391 89.690328 -4.363947 -24.014680 -0.956427 -0.001512 -0.000834 -0.000686
